<svg width="1031" height="978" viewBox="0 0 1031 978" fill="none" xmlns="http://www.w3.org/2000/svg">
<g opacity="0.4">
<path d="M7.52026 516.464C7.43938 533.486 11.0754 550.359 18.2241 566.134C25.4686 581.674 36.9245 595.443 51.7645 604.099C55.3837 606.245 59.209 608.098 63.1953 609.638C67.1128 611.085 71.1753 612.197 75.3279 612.957C83.4208 614.45 91.7568 614.556 99.8941 613.271C116.038 610.782 130.928 603.628 144.113 594.21C144.915 593.604 145.818 592.999 146.62 592.438L148.475 590.846C149.678 589.725 150.982 588.604 152.035 587.415C154.441 584.963 156.628 582.347 158.577 579.589C162.842 573.626 166.492 567.329 169.482 560.775C175.986 546.313 181.323 531.452 185.45 516.307C194.399 484.912 201.518 451.656 209.991 417.885C212.096 409.423 214.344 400.932 216.734 392.411C219.04 383.867 221.597 375.301 224.254 366.667C229.657 348.711 236.596 331.153 245.01 314.149C247.316 309.664 249.848 305.179 252.856 300.537C254.335 298.295 256.015 295.895 257.87 293.608C259.725 291.32 261.53 289.123 263.51 287.127C271.093 279.236 279.877 272.336 289.605 266.631C308.005 255.576 326.906 248.691 345.055 241.695C363.204 234.698 381.102 228.24 398.022 220.504C414.774 212.985 430.524 203.8 444.974 193.123C458.954 182.643 470.875 170.145 480.244 156.145C489.469 142.264 496.187 127.127 498.117 112.394C499.17 105.37 499.06 98.2443 497.791 91.2481C496.583 84.9928 494.029 79.0068 490.271 73.6223C486.906 68.8629 482.481 64.7754 477.27 61.6154C472.06 58.4553 466.177 56.2906 459.989 55.2566C453.674 54.1529 447.206 53.926 440.813 54.5838C433.949 55.3441 427.215 56.8502 420.759 59.0688C419.079 59.6294 417.425 60.2573 415.745 60.8852L409.829 63.1276C405.919 64.6973 402.033 66.3343 398.248 68.0835C390.728 71.5593 383.207 75.3042 375.913 79.4976C361.298 87.7723 346.935 97.7961 330.942 108.65C314.172 120.193 296.477 130.619 277.999 139.842C258.737 149.049 238.532 156.581 217.661 162.334C215.155 163.097 212.498 163.702 209.916 164.375L202.972 166.146C199.136 167.155 195.251 168.254 191.391 169.443C183.695 171.865 176.074 174.623 168.654 177.695C138.999 190.073 113.08 207.43 94.6299 229.989C85.0873 241.492 77.1962 254.02 71.1417 267.281C67.8845 274.217 65.1297 281.333 62.8945 288.585C60.4902 296.096 58.5322 303.716 57.0286 311.413C55.5246 319.239 54.3464 327.267 53.6195 335.43C53.2434 339.264 52.9677 344.265 52.6168 348.884C52.2658 353.504 51.7394 358.101 51.1378 362.676C48.7413 380.764 44.9301 398.681 39.732 416.293C34.7185 433.717 28.5018 450.58 22.1848 467.152C19.0012 475.449 15.8176 483.679 12.985 491.819C9.93448 499.777 8.09637 508.066 7.52026 516.464ZM0 516.464C0.0263979 511.877 0.546873 507.304 1.55419 502.807C2.43156 498.322 3.58466 494.084 4.7127 489.823C6.96878 481.279 9.40033 472.848 11.4057 464.371C13.4111 455.895 15.1909 447.441 16.4192 438.942C17.6476 430.443 18.4497 421.921 18.926 413.422C19.6049 396.576 18.3956 379.71 15.3163 363.079C14.6144 358.953 13.7119 354.872 12.8095 350.813C11.9071 346.754 10.8292 342.987 9.77634 338.165C7.63397 328.877 6.06902 319.489 5.08872 310.045C2.96144 290.417 3.98283 270.617 8.12189 251.248C12.5265 231.002 20.767 211.58 32.4875 193.818C44.4947 176.004 59.5222 159.966 77.0325 146.278C94.1986 132.831 113.314 121.517 133.861 112.641C143.97 108.208 154.386 104.358 165.045 101.115C170.359 99.4331 175.774 97.9755 181.288 96.63L194.674 93.4233C211.11 89.4131 227.136 84.1618 242.579 77.726C258.601 70.8858 274.072 63.0556 288.878 54.2923C304.796 45.3225 322.018 34.8502 341.119 25.7682C350.701 21.1568 360.55 17.0025 370.624 13.3226C375.637 11.4613 380.651 9.77946 385.915 8.16489L393.635 5.92243C396.568 5.13757 399.526 4.37513 402.509 3.67997C414.74 0.899878 427.349 -0.315663 439.96 0.0696057C453.053 0.441082 465.973 2.85431 478.138 7.20063C490.556 11.6689 501.836 18.3353 511.303 26.7997C520.651 35.1481 527.899 45.1866 532.56 56.2433C536.939 66.6992 539.09 77.7963 538.902 88.9608C538.771 99.3599 536.947 109.686 533.487 119.615C526.78 137.934 516.558 155.068 503.281 170.25C496.978 177.655 490.118 184.668 482.751 191.239C475.423 197.693 467.681 203.758 459.563 209.403C427.251 231.828 390.552 246.718 357.388 264.052C340.843 272.618 325.076 281.992 313.119 292.8C307.515 297.844 302.753 303.584 298.98 309.843C298.128 311.338 297.351 312.833 296.649 314.328C295.972 315.786 295.346 317.266 294.719 318.813C293.491 322.042 292.363 325.54 291.335 329.263C289.304 336.641 287.725 344.601 286.321 352.719C284.918 360.837 283.664 369.156 282.386 377.543L278.676 402.973C277.422 411.516 276.169 420.127 274.665 428.783C268.749 463.317 261.229 498.546 247.091 533.618C239.971 551.848 230.463 569.258 218.764 585.487C215.581 589.658 212.272 593.784 208.587 597.82C204.895 601.954 200.892 605.858 196.605 609.503C192.186 613.318 187.443 616.82 182.416 619.976C179.851 621.598 177.19 623.095 174.445 624.461L170.234 626.479C168.88 627.107 167.727 627.555 166.398 628.093C156.222 632.321 145.565 635.554 134.613 637.736C123.47 639.939 112.03 640.695 100.646 639.978C89.3263 639.257 78.2322 636.783 67.8578 632.668C62.7906 630.655 57.9406 628.231 53.3688 625.425C48.9187 622.703 44.7266 619.658 40.835 616.32C26.114 603.198 15.2541 587.02 9.22485 569.229C3.28704 552.199 0.178888 534.481 0 516.643V516.464Z" fill="#EBEBEB"/>
<path d="M323.121 591.474C333.492 573.772 341.205 554.921 346.057 535.412C351.297 515.97 354.631 496.124 357.889 476.054C359.619 466.031 361.173 455.872 363.229 445.714C365.149 435.266 367.743 424.925 371 414.745C374.455 403.772 379.423 393.226 385.79 383.351C393.156 372.092 403.266 362.464 415.369 355.186C418.603 353.28 422.087 351.687 425.396 349.983C428.705 348.279 432.566 347.202 436.225 345.924C439.885 344.646 443.746 343.906 447.406 343.054C451.065 342.202 454.926 341.821 458.661 341.26C473.059 339.548 487.66 339.722 502.003 341.776C516.069 343.781 529.809 347.32 542.913 352.315C555.187 357.062 567.001 362.71 578.233 369.201C598.627 381.285 618.014 394.678 636.239 409.274L661.908 429.456C666.095 432.752 670.331 435.892 674.442 439.054L680.684 443.74L686.926 448.225C695.037 454.036 703.47 459.477 712.194 464.528C720.439 469.35 729.127 473.536 738.164 477.041C747.77 480.549 757.701 483.295 767.844 485.248C778.422 487.491 789.452 489.15 800.758 490.63C823.318 493.613 846.882 495.496 870.721 497.963L888.644 499.959C894.686 500.744 900.677 501.551 906.743 502.538C919.054 504.38 931.189 507.064 943.041 510.566C955.441 514.151 967.12 519.488 977.634 526.375C988.263 533.507 996.938 542.709 1003 553.285C1005.9 558.392 1008.23 563.739 1009.97 569.251L1012.23 577.391C1012.85 580.082 1013.26 582.683 1013.78 585.352C1015.55 596.016 1016.23 606.802 1015.81 617.576C1015.21 628.424 1013.43 639.193 1010.5 649.733C1009.7 652.357 1009.09 655.048 1008.14 657.626L1005.33 665.408C1003.18 670.498 1001 675.611 998.415 680.544C988.07 700.433 974.477 718.836 958.081 735.148C950.01 743.381 941.406 751.184 932.312 758.515C923.338 765.982 913.762 772.777 904.036 779.392C899.022 782.576 894.209 785.918 889.121 788.923L881.6 793.542L873.905 798.027C863.56 803.827 852.998 809.284 842.219 814.397C836.83 816.931 831.39 819.375 825.95 821.842C820.511 824.309 814.946 826.506 809.406 828.726C803.866 830.946 798.301 833.211 792.661 835.207C787.021 837.203 781.43 839.333 775.715 841.194L743.127 852.093C737.813 853.864 732.599 855.77 727.36 857.609L719.489 860.39L711.693 863.282C670.325 878.572 630.041 896.111 591.068 915.801C571.49 925.69 552.088 935.983 531.031 946.388C520.528 951.658 509.398 956.771 497.215 961.637C484.307 966.84 470.878 970.94 457.107 973.881C442.324 976.965 427.158 978.33 411.985 977.94C397.553 977.543 383.209 975.776 369.195 972.67C362.376 971.347 356.034 969.575 349.592 967.893C346.408 966.996 343.35 966.01 340.242 965.09C337.133 964.171 334.075 963.229 330.867 962.04L321.391 958.632L316.678 956.883L311.991 954.842C305.651 952.212 299.483 949.262 293.516 946.007C290.508 944.347 287.5 942.733 284.517 941.006L275.843 935.288L271.582 932.395C270.153 931.408 268.849 930.265 267.471 929.188L259.449 922.64C256.942 920.398 254.436 917.797 252.079 915.397L248.47 911.72C247.316 910.464 246.289 909.118 245.186 907.795C243.055 905.149 240.899 902.526 238.844 899.857C236.788 897.189 235.209 894.251 233.454 891.425C226.852 880.356 222.161 868.455 219.542 856.129L218.514 851.644C218.238 850.142 218.063 848.662 217.862 847.159C217.461 844.199 217.035 841.239 216.759 838.189C216.392 832.402 216.35 826.602 216.634 820.81C217.2 809.659 218.827 798.571 221.497 787.667C224.117 777.179 227.398 766.832 231.323 756.676C239.062 737.001 248.162 717.775 258.572 699.112C261.079 694.515 263.585 689.851 266.293 685.321C269 680.791 271.306 676.172 274.139 671.664C276.971 667.157 279.503 662.694 282.21 658.209L290.307 644.755L323.121 591.474ZM329.789 594.524C319.06 612.284 309.083 630.403 300.209 648.903L296.9 655.832L293.792 662.829C291.661 667.471 289.781 672.202 287.876 676.912C283.99 686.307 280.631 695.86 277.523 705.436C271.329 724.344 267.067 743.716 264.789 763.314C263.681 772.795 263.204 782.328 263.36 791.86C263.584 800.98 264.632 810.07 266.493 819.039C267.17 823.524 268.699 827.583 269.802 831.753L272.083 837.741C272.484 838.728 272.81 839.714 273.211 840.679L274.64 843.504C278.038 850.757 282.552 857.55 288.051 863.686C289.43 865.166 290.809 866.601 292.087 868.171L296.599 872.208C297.351 872.88 298.053 873.598 298.83 874.226L301.337 876.042C303.017 877.231 304.571 878.509 306.35 879.675L311.74 882.994C312.642 883.554 313.47 884.16 314.422 884.653L317.355 886.156L323.146 889.183L329.388 891.851C338.038 895.52 346.978 898.616 356.135 901.113C358.391 901.83 360.922 902.436 363.429 903.041C365.936 903.647 368.443 904.32 370.95 904.858C375.838 905.822 380.751 906.988 385.464 907.638C394.347 909.195 403.384 909.946 412.436 909.881C420.709 909.769 428.938 908.783 436.952 906.943C453.171 903.243 471.27 895.35 490.898 885.954C500.699 881.312 510.701 876.379 520.979 871.378C531.256 866.377 541.76 861.511 552.313 856.622C595.145 837.084 639.466 820.276 684.946 806.324L693.318 803.678L701.866 801.166C707.556 799.507 713.247 797.78 718.962 796.211L752.427 787.084C763.081 784.146 773.635 781.029 784.138 777.822L799.755 772.777C804.919 771.005 810.083 769.256 815.222 767.44C825.374 763.672 835.627 759.972 845.503 755.757L853.023 752.662L860.368 749.41C865.382 747.302 870.019 744.925 874.857 742.683C893.833 733.48 911.765 722.65 928.401 710.347C936.522 704.232 944.153 697.616 951.238 690.546C958.291 683.62 964.594 676.111 970.064 668.121C981.135 652.266 988.146 634.415 990.594 615.849C991.684 606.506 991.634 597.085 990.444 587.751C990.068 585.509 989.817 583.042 989.366 580.755L987.812 574.027C986.514 569.749 984.768 565.589 982.597 561.604C978.274 553.718 971.832 546.915 963.847 541.803C955.322 536.514 945.817 532.619 935.771 530.299C925.093 527.797 914.188 526.146 903.184 525.366C892.003 524.536 880.623 524.245 869.092 524.334C846.08 524.447 822.616 525.725 798.426 526.173C786.294 526.33 773.96 526.173 761.276 525.501C748.115 524.84 735.04 523.175 722.196 520.522C694.847 514.535 671.284 503.569 649.951 491.37C607.587 466.838 574.222 437.551 540.331 416.001C523.46 405.26 506.765 396.694 489.569 391.984C480.924 389.613 471.98 388.227 462.947 387.858C454.741 387.208 446.479 388.289 438.825 391.015C431.171 393.741 424.339 398.037 418.879 403.556C412.067 410.157 406.229 417.513 401.507 425.442C396.383 433.925 391.805 442.662 387.795 451.611C383.759 460.828 379.924 470.269 376.439 479.822C369.27 498.927 362.978 518.459 355.784 537.767C348.964 557.314 340.284 576.302 329.839 594.524H329.789Z" fill="#0F7F81"/>
<path d="M1021 135.155C1017.85 141.193 1014.24 147.029 1010.2 152.624C1008.34 155.315 1006.39 157.849 1004.43 160.406C1002.48 162.962 1000.42 165.361 998.365 167.716C994.304 172.515 990.042 176.932 985.831 181.35C968.635 198.729 949.909 213.642 931.56 228.442L925.067 233.712L922.21 235.954L919.427 238.578C917.547 240.26 915.892 242.188 914.138 244.027C912.383 245.866 910.829 247.974 909.124 250.037C907.42 252.1 905.966 254.208 904.512 256.45C903.058 258.693 901.579 260.935 900.2 263.178C897.518 267.662 894.786 272.529 892.404 277.417C882.377 297.016 874.857 318.073 863.301 339.174C857.247 350.403 849.234 360.698 839.562 369.672C834.27 374.419 828.381 378.603 822.015 382.14C818.773 383.916 815.425 385.533 811.988 386.984C810.258 387.701 808.528 388.464 806.774 389.092L801.459 390.863C794.394 393.049 787.131 394.684 779.751 395.752C776.041 396.357 772.03 396.537 768.094 396.851C764.159 397.165 760.323 396.851 756.388 396.851C752.452 396.851 748.868 396.245 744.882 395.864C743.004 395.664 741.138 395.379 739.292 395.012L733.727 394.003L730.944 393.464L728.262 392.769L722.898 391.334C719.351 390.424 715.868 389.323 712.47 388.038C699.17 383.284 686.595 377.045 675.044 369.47C663.912 362.086 653.641 353.717 644.386 344.489C635.365 335.343 627.403 325.403 620.622 314.821C618.942 312.175 617.338 309.507 615.759 306.861C614.18 304.215 612.851 301.367 611.422 298.631C609.993 295.895 608.69 293.114 607.487 290.289C606.283 287.463 604.98 284.705 603.977 281.79C599.658 270.422 596.372 258.761 594.151 246.92C591.896 235.289 590.689 223.516 590.541 211.713C590.294 200.183 591.267 188.657 593.449 177.291C595.605 166.067 599.592 155.188 605.281 145C611.291 134.671 619.866 125.712 630.348 118.808C641.025 111.968 652.697 106.468 665.042 102.46C689.686 94.4849 715.179 88.7892 741.122 85.4625C753.931 83.7134 766.665 82.5473 779.274 81.8297C780.497 81.7806 781.713 81.638 782.909 81.4036L785.842 80.9327C787.848 80.3945 789.753 80.2376 791.733 79.6097L794.641 78.8696C795.619 78.5557 796.596 78.1969 797.574 77.9502C799.529 77.4793 801.585 76.5599 803.565 75.9993C812.61 72.7009 821.417 68.9039 829.936 64.63L844.801 57.1626L852.747 53.1486L861.27 49.1346C866.936 46.354 873.278 43.6854 879.795 41.0393C886.873 38.2737 894.141 35.9143 901.554 33.9756C909.915 31.7855 918.51 30.3875 927.198 29.8046C936.682 29.1552 946.221 29.6683 955.549 31.3295L959.109 31.9349L962.568 32.7647C964.849 33.3477 967.181 33.9083 969.462 34.5586C973.839 35.936 978.117 37.5536 982.271 39.4023L988.313 42.2054L993.853 45.2776C997.434 47.3552 1000.89 49.6008 1004.21 52.005C1005.08 52.588 1005.76 53.0365 1006.71 53.7765C1007.66 54.5165 1009.22 55.7499 1010.5 56.7814C1013.1 58.8819 1015.49 61.1858 1017.64 63.6658C1018.17 64.2712 1018.74 64.8991 1019.27 65.5494L1020.8 67.6349C1021.78 69.0477 1022.71 70.438 1023.63 71.8732C1025.29 74.7645 1026.71 77.7628 1027.87 80.843C1028.37 82.3679 1028.82 83.8703 1029.25 85.3279C1029.47 86.0904 1029.67 86.8752 1029.82 87.5704L1030.23 89.8129C1030.45 91.248 1030.63 92.7056 1030.8 94.1632C1030.98 95.6208 1030.93 96.8766 1030.98 98.2445C1031.03 99.6124 1030.98 100.958 1030.98 102.259L1030.63 105.936C1030.48 107.125 1030.38 108.425 1030.15 109.547L1029.42 113C1027.59 120.652 1024.76 128.087 1021 135.155Z" fill="#166994"/>
</g>
<g opacity="0.4">
<path d="M902.256 351.777C961.19 310.83 1020.47 318.79 1020.47 318.79C1020.47 318.79 1020.75 372.43 966.955 418.692C921.558 457.733 878.467 455.513 863.602 440.175C848.737 424.836 852.522 386.311 902.256 351.777Z" fill="#EBEBEB"/>
<path d="M895.713 378.261C933.064 352.293 970.64 357.361 970.64 357.361C970.64 357.361 970.816 391.334 936.724 420.688C907.946 445.355 880.597 444.032 871.197 434.3C861.797 424.567 864.178 400.147 895.713 378.261Z" fill="white"/>
</g>
<path d="M922.761 392.276L918.299 389.092C917.994 388.875 917.74 388.608 917.551 388.303C917.362 387.999 917.242 387.665 917.198 387.319C917.153 386.973 917.186 386.623 917.293 386.288C917.4 385.954 917.58 385.641 917.823 385.369C918.066 385.098 918.367 384.873 918.708 384.706C919.049 384.539 919.423 384.433 919.81 384.396C920.196 384.358 920.587 384.389 920.96 384.487C921.333 384.585 921.681 384.747 921.984 384.966L926.446 388.15C926.748 388.366 927 388.633 927.186 388.936C927.373 389.239 927.49 389.572 927.532 389.916C927.574 390.26 927.539 390.608 927.431 390.94C927.322 391.272 927.14 391.581 926.897 391.85C926.658 392.122 926.361 392.349 926.023 392.518C925.685 392.686 925.313 392.794 924.928 392.833C924.544 392.873 924.154 392.844 923.782 392.748C923.411 392.653 923.063 392.492 922.761 392.276Z" fill="#EBEBEB"/>
<path d="M872.45 433.336L869.342 429.052C868.915 428.466 868.765 427.752 868.925 427.067C869.084 426.382 869.541 425.782 870.194 425.397C870.52 425.205 870.885 425.071 871.268 425.005C871.651 424.939 872.045 424.942 872.427 425.013C872.809 425.084 873.172 425.222 873.495 425.418C873.817 425.615 874.092 425.867 874.305 426.16L877.414 430.443C877.839 431.032 877.985 431.747 877.82 432.433C877.656 433.118 877.194 433.717 876.536 434.098C875.881 434.48 875.083 434.614 874.318 434.471C873.552 434.329 872.88 433.92 872.45 433.336Z" fill="#EBEBEB"/>
<path d="M901.83 384.136H898.746C898.358 384.124 897.976 384.044 897.622 383.9C897.268 383.757 896.949 383.552 896.684 383.298C896.418 383.044 896.211 382.745 896.075 382.42C895.939 382.094 895.875 381.748 895.889 381.4C895.902 381.052 895.991 380.711 896.152 380.394C896.313 380.077 896.542 379.792 896.826 379.555C897.11 379.317 897.443 379.132 897.807 379.01C898.171 378.888 898.558 378.832 898.947 378.844H902.005C902.393 378.852 902.774 378.93 903.128 379.071C903.482 379.212 903.801 379.415 904.066 379.667C904.332 379.92 904.539 380.217 904.676 380.541C904.813 380.865 904.876 381.211 904.863 381.557C904.853 381.904 904.767 382.247 904.609 382.565C904.451 382.882 904.225 383.169 903.944 383.409C903.662 383.648 903.33 383.836 902.968 383.96C902.605 384.085 902.218 384.145 901.83 384.136Z" fill="#EBEBEB"/>
<path d="M930.206 417.302V414.566C930.216 414.219 930.302 413.878 930.46 413.562C930.618 413.245 930.845 412.96 931.127 412.722C931.409 412.484 931.741 412.299 932.103 412.177C932.466 412.054 932.852 411.998 933.239 412.01C933.628 412.018 934.01 412.095 934.366 412.237C934.721 412.378 935.041 412.58 935.309 412.832C935.577 413.084 935.786 413.381 935.926 413.705C936.065 414.03 936.132 414.375 936.122 414.723V417.481C936.112 417.828 936.026 418.169 935.868 418.486C935.71 418.802 935.483 419.087 935.201 419.325C934.919 419.563 934.587 419.748 934.225 419.871C933.862 419.993 933.476 420.05 933.089 420.038C932.698 420.029 932.313 419.951 931.956 419.809C931.6 419.666 931.278 419.462 931.01 419.207C930.742 418.953 930.533 418.654 930.395 418.327C930.257 417.999 930.193 417.651 930.206 417.302Z" fill="#EBEBEB"/>
<path d="M864.855 418.109L864.504 415.396C864.417 414.711 864.63 414.024 865.097 413.476C865.564 412.929 866.25 412.564 867.011 412.458C867.795 412.383 868.581 412.588 869.196 413.029C869.811 413.47 870.206 414.112 870.295 414.813L870.621 417.526C870.713 418.209 870.503 418.897 870.034 419.443C869.565 419.988 868.875 420.346 868.114 420.441C867.728 420.482 867.338 420.453 866.964 420.358C866.591 420.262 866.243 420.101 865.94 419.884C865.637 419.667 865.385 419.399 865.198 419.094C865.012 418.789 864.896 418.455 864.855 418.109Z" fill="#EBEBEB"/>
<path d="M914.614 442.014L911.756 443.023C911.394 443.15 911.008 443.212 910.619 443.205C910.23 443.198 909.847 443.123 909.49 442.983C909.134 442.844 908.812 442.643 908.543 442.392C908.274 442.141 908.062 441.845 907.921 441.52C907.779 441.197 907.71 440.851 907.718 440.503C907.725 440.155 907.809 439.812 907.965 439.493C908.121 439.175 908.346 438.887 908.627 438.646C908.907 438.405 909.238 438.216 909.601 438.09L912.458 437.103C913.186 436.845 913.999 436.856 914.718 437.134C915.437 437.411 916.003 437.932 916.294 438.583C916.439 438.906 916.511 439.253 916.505 439.601C916.499 439.95 916.415 440.294 916.259 440.614C916.102 440.933 915.876 441.222 915.594 441.462C915.312 441.702 914.978 441.89 914.614 442.014Z" fill="#EBEBEB"/>
<path d="M904.34 442.266C923.066 440.396 936.552 425.3 934.461 408.548C932.371 391.797 915.496 379.733 896.77 381.603C878.044 383.473 864.558 398.569 866.649 415.32C868.739 432.072 885.614 444.136 904.34 442.266Z" fill="#EBEBEB"/>
<path d="M885.937 395.236C886.026 396.705 886.651 398.107 887.717 399.228C888.778 400.392 890.173 401.275 891.752 401.784C893.381 402.318 895.176 402.269 896.766 401.65C898.277 401.052 899.502 399.995 900.225 398.667C899.122 399.588 897.803 400.278 896.365 400.685C895.69 400.862 894.986 400.93 894.284 400.887C893.582 400.868 892.888 400.747 892.229 400.528L891.226 400.169C890.9 400.013 890.574 399.878 890.273 399.699C889.655 399.363 889.075 398.972 888.544 398.533C887.436 397.601 886.55 396.48 885.937 395.236Z" fill="#C7C7C7"/>
<path d="M898.345 395.774C898.363 394.742 897.982 393.736 897.267 392.926C896.545 392.093 895.57 391.463 894.46 391.11C893.348 390.73 892.114 390.751 891.02 391.17C889.925 391.588 889.055 392.371 888.594 393.352C889.395 392.789 890.316 392.377 891.301 392.141C892.182 391.949 893.107 391.996 893.958 392.276C895.86 392.908 897.426 394.157 898.345 395.774Z" fill="#C7C7C7"/>
<path d="M912.458 415.441C912.149 416.41 912.247 417.447 912.734 418.356C913.203 419.297 913.993 420.082 914.99 420.598C915.496 420.883 916.062 421.072 916.653 421.153C917.243 421.234 917.846 421.205 918.424 421.069C919.521 420.827 920.478 420.227 921.107 419.387C920.205 419.759 919.238 419.987 918.249 420.06C917.365 420.082 916.493 419.872 915.742 419.455C914.949 419.047 914.258 418.497 913.712 417.84C913.132 417.116 912.707 416.303 912.458 415.441Z" fill="#C7C7C7"/>
<path d="M919.903 418.177C920.059 417.854 920.139 417.507 920.139 417.156C920.139 416.805 920.059 416.458 919.903 416.136C919.593 415.45 919.038 414.874 918.324 414.499C917.953 414.295 917.539 414.162 917.107 414.107C916.676 414.053 916.237 414.08 915.817 414.185C915.436 414.286 915.081 414.455 914.776 414.683C914.47 414.91 914.218 415.191 914.038 415.508C914.677 415.322 915.345 415.223 916.018 415.217C916.56 415.242 917.085 415.388 917.547 415.643C918.62 416.235 919.447 417.125 919.903 418.177Z" fill="#C7C7C7"/>
<path d="M923.764 407.48C923.495 407.759 923.293 408.083 923.168 408.434C923.043 408.785 922.998 409.154 923.037 409.52C923.078 409.917 923.207 410.302 923.418 410.653C923.629 411.003 923.917 411.312 924.265 411.561C924.613 411.809 925.019 411.984 925.453 412.073C925.887 412.162 926.338 412.164 926.772 412.077C927.565 411.922 928.274 411.526 928.777 410.956C928.077 411.008 927.372 411.008 926.672 410.956C926.103 410.946 925.555 410.765 925.117 410.44C924.669 410.113 924.324 409.688 924.115 409.207C923.894 408.652 923.775 408.069 923.764 407.48Z" fill="#C7C7C7"/>
<path d="M928.326 409.992C928.559 409.824 928.743 409.607 928.861 409.361C928.979 409.114 929.028 408.846 929.003 408.579C928.991 408.283 928.906 407.992 928.754 407.729C928.603 407.465 928.388 407.235 928.126 407.054C927.865 406.86 927.555 406.725 927.223 406.663C926.891 406.6 926.547 406.611 926.22 406.695C925.935 406.761 925.667 406.878 925.434 407.04C925.201 407.202 925.008 407.405 924.867 407.637C925.354 407.645 925.839 407.683 926.321 407.749C926.64 407.793 926.942 407.908 927.198 408.085C927.473 408.283 927.703 408.527 927.875 408.803C928.082 409.18 928.234 409.58 928.326 409.992Z" fill="#C7C7C7"/>
<path d="M876.16 403.152C876.167 403.523 876.257 403.889 876.424 404.228C876.592 404.567 876.835 404.872 877.138 405.125C877.473 405.404 877.868 405.618 878.299 405.753C878.731 405.888 879.189 405.941 879.645 405.91C880.102 405.892 880.548 405.779 880.948 405.581C881.348 405.383 881.692 405.104 881.951 404.767C882.419 404.172 882.649 403.452 882.603 402.726C882.147 403.206 881.643 403.649 881.099 404.049C880.658 404.357 880.127 404.544 879.57 404.587C878.989 404.613 878.41 404.505 877.89 404.273C877.25 403.985 876.666 403.607 876.16 403.152Z" fill="#C7C7C7"/>
<path d="M881.45 402.277C881.49 402.013 881.461 401.743 881.365 401.491C881.27 401.238 881.11 401.008 880.898 400.82C880.668 400.608 880.39 400.443 880.084 400.335C879.777 400.227 879.448 400.178 879.118 400.192C878.802 400.208 878.493 400.285 878.214 400.419C877.934 400.552 877.691 400.738 877.5 400.964C877.309 401.191 877.175 401.451 877.109 401.729C877.042 402.006 877.043 402.292 877.113 402.569C877.564 402.255 877.915 401.986 878.266 401.784C878.551 401.637 878.867 401.545 879.194 401.515C879.545 401.502 879.895 401.556 880.221 401.672C880.66 401.821 881.074 402.025 881.45 402.277Z" fill="#C7C7C7"/>
<path d="M897.769 421.854C896.488 422.527 895.012 422.845 893.529 422.769C892.046 422.692 890.621 422.225 889.435 421.425C888.249 420.625 887.354 419.529 886.863 418.274C886.372 417.02 886.308 415.663 886.678 414.376C887.049 413.089 887.837 411.929 888.943 411.042C890.049 410.155 891.425 409.582 892.895 409.393C894.366 409.205 895.866 409.41 897.206 409.984C898.546 410.557 899.667 411.473 900.426 412.615C900.932 413.377 901.265 414.221 901.406 415.099C901.546 415.976 901.491 416.87 901.245 417.729C900.998 418.587 900.563 419.394 899.967 420.102C899.37 420.81 898.623 421.405 897.769 421.854Z" fill="#DBDBDB"/>
<path d="M890.023 413.221C889.097 413.709 888.312 414.386 887.733 415.196C887.154 416.007 886.796 416.928 886.689 417.885C886.348 416.798 886.318 415.652 886.602 414.552C886.886 413.452 887.475 412.434 888.315 411.591C889.154 410.749 890.217 410.108 891.406 409.729C892.594 409.351 893.87 409.245 895.116 409.424C896.363 409.602 897.538 410.058 898.536 410.749C899.533 411.44 900.32 412.345 900.824 413.38C901.328 414.415 901.533 415.547 901.419 416.671C901.306 417.795 900.878 418.876 900.175 419.813C900.441 418.665 900.333 417.473 899.864 416.378C899.394 415.283 898.583 414.332 897.527 413.638C896.471 412.944 895.214 412.535 893.906 412.461C892.598 412.387 891.294 412.651 890.148 413.221H890.023Z" fill="#C7C7C7"/>
<path d="M883.831 418.199C884.023 419.983 884.819 421.673 886.112 423.042C887.449 424.447 889.179 425.507 891.126 426.115C893.091 426.809 895.277 426.809 897.242 426.115C899.037 425.342 900.493 424.056 901.378 422.459C900.066 423.655 898.449 424.548 896.666 425.061C896.24 425.182 895.804 425.272 895.362 425.33C894.921 425.375 894.475 425.375 894.034 425.33C893.176 425.305 892.329 425.154 891.527 424.881L890.273 424.433C889.872 424.231 889.471 424.074 889.095 423.85C888.311 423.427 887.58 422.931 886.914 422.37C885.59 421.175 884.542 419.757 883.831 418.199Z" fill="#C7C7C7"/>
<path d="M875.835 421.563C875.486 421.673 875.116 421.721 874.746 421.704C874.377 421.686 874.014 421.604 873.68 421.461C873.346 421.318 873.047 421.118 872.799 420.872C872.552 420.626 872.361 420.339 872.238 420.027C872.114 419.714 872.061 419.384 872.08 419.053C872.1 418.722 872.192 418.398 872.351 418.099C872.51 417.801 872.734 417.533 873.009 417.311C873.284 417.09 873.606 416.919 873.955 416.809C874.66 416.599 875.428 416.643 876.098 416.932C876.767 417.221 877.284 417.732 877.539 418.356C877.788 418.983 877.749 419.674 877.429 420.275C877.109 420.876 876.536 421.339 875.835 421.563Z" fill="#DBDBDB"/>
<path d="M873.804 417.975C873.426 418.094 873.085 418.292 872.81 418.554C872.535 418.815 872.335 419.132 872.225 419.477C872.162 418.92 872.311 418.36 872.648 417.888C872.984 417.416 873.489 417.06 874.08 416.876C874.785 416.666 875.554 416.711 876.223 416.999C876.892 417.288 877.409 417.799 877.665 418.423C877.842 418.873 877.872 419.358 877.753 419.823C877.633 420.288 877.367 420.712 876.988 421.047C877.225 420.514 877.225 419.92 876.988 419.387C876.883 419.107 876.718 418.848 876.501 418.625C876.284 418.403 876.02 418.22 875.724 418.089C875.428 417.958 875.107 417.88 874.777 417.86C874.448 417.841 874.117 417.88 873.804 417.975Z" fill="#C7C7C7"/>
<path d="M870.972 419.343C870.858 420.012 870.99 420.696 871.348 421.293C871.726 421.905 872.28 422.416 872.952 422.773C873.642 423.15 874.47 423.27 875.258 423.11C876.004 422.955 876.663 422.565 877.113 422.011C876.514 422.324 875.848 422.523 875.158 422.594C874.516 422.632 873.876 422.491 873.328 422.19C872.74 421.884 872.227 421.473 871.822 420.983C871.417 420.494 871.128 419.936 870.972 419.343Z" fill="#C7C7C7"/>
<path d="M897.092 435.914C896.309 436.033 895.505 435.942 894.78 435.652C894.056 435.362 893.444 434.886 893.022 434.284C892.6 433.682 892.387 432.982 892.41 432.272C892.433 431.563 892.691 430.875 893.152 430.296C893.612 429.718 894.254 429.274 894.997 429.023C895.739 428.771 896.548 428.722 897.322 428.881C898.095 429.041 898.798 429.403 899.342 429.92C899.886 430.438 900.245 431.088 900.376 431.788C900.465 432.252 900.451 432.728 900.335 433.187C900.218 433.646 900 434.08 899.695 434.464C899.39 434.847 899.002 435.173 898.556 435.422C898.109 435.671 897.611 435.838 897.092 435.914Z" fill="#DBDBDB"/>
<path d="M895.086 430.286C894.524 430.371 893.993 430.574 893.536 430.878C893.078 431.182 892.708 431.578 892.454 432.035C892.517 431.155 892.941 430.328 893.645 429.712C894.35 429.095 895.284 428.734 896.268 428.698C897.253 428.662 898.217 428.953 898.976 429.515C899.734 430.078 900.233 430.871 900.376 431.743C900.5 432.413 900.411 433.101 900.119 433.728C899.826 434.355 899.342 434.895 898.721 435.287C899.195 434.621 899.391 433.826 899.273 433.044C899.206 432.615 899.043 432.202 898.795 431.83C898.547 431.458 898.219 431.134 897.829 430.877C897.439 430.62 896.995 430.435 896.524 430.334C896.053 430.232 895.564 430.216 895.086 430.286Z" fill="#C7C7C7"/>
<path d="M890.925 431.676C890.653 432.593 890.697 433.562 891.051 434.457C891.394 435.372 892.009 436.185 892.83 436.811C893.674 437.458 894.752 437.809 895.864 437.798C896.935 437.757 897.96 437.393 898.771 436.766C897.871 437.143 896.882 437.32 895.889 437.282C894.961 437.204 894.083 436.867 893.382 436.318C892.641 435.758 892.042 435.062 891.627 434.277C891.191 433.464 890.951 432.578 890.925 431.676Z" fill="#C7C7C7"/>
<path d="M910.528 399.721C911.27 400.76 912.348 401.573 913.619 402.051C914.89 402.529 916.293 402.65 917.642 402.398C918.992 402.146 920.224 401.532 921.174 400.639C922.124 399.745 922.748 398.615 922.963 397.396C923.178 396.178 922.973 394.93 922.377 393.819C921.78 392.707 920.819 391.784 919.622 391.172C918.425 390.561 917.048 390.289 915.674 390.394C914.301 390.499 912.995 390.976 911.932 391.76C910.57 392.653 909.659 393.99 909.396 395.482C909.133 396.973 909.54 398.497 910.528 399.721Z" fill="#DBDBDB"/>
<path d="M919.853 394.474C920.409 395.095 920.78 395.833 920.929 396.617C921.078 397.402 921.001 398.208 920.706 398.959C921.613 398.001 922.129 396.795 922.17 395.541C922.211 394.286 921.774 393.056 920.931 392.052C919.771 390.959 918.177 390.319 916.493 390.268C914.81 390.218 913.171 390.762 911.932 391.783C910.968 392.464 910.226 393.364 909.785 394.39C909.344 395.416 909.219 396.529 909.425 397.613C909.731 396.291 910.536 395.103 911.706 394.249C912.823 393.319 914.306 392.82 915.831 392.862C917.357 392.904 918.803 393.483 919.853 394.474Z" fill="#C7C7C7"/>
<path d="M907.821 395.886C907.055 397.284 906.938 398.896 907.495 400.371C907.786 401.125 908.256 401.814 908.874 402.39C909.464 402.993 910.193 403.476 911.01 403.804C911.828 404.133 912.715 404.301 913.611 404.296C914.46 404.312 915.307 404.206 916.118 403.982C917.718 403.547 919.178 402.779 920.38 401.739C918.927 402.279 917.415 402.677 915.867 402.928C914.427 403.157 912.943 403.025 911.581 402.546C910.939 402.269 910.347 401.906 909.826 401.47C909.282 401.045 908.839 400.526 908.523 399.945C907.884 398.674 907.642 397.271 907.821 395.886Z" fill="#C7C7C7"/>
</svg>
