<svg width="1920" height="1080" viewBox="0 0 1920 1080" fill="none" xmlns="http://www.w3.org/2000/svg">
<g filter="url(#filter0_f_70_93)">
<path d="M1700.25 672.942L346.535 740.938C346.118 740.959 345.704 740.849 345.352 740.622L-726.044 50.8507C-726.773 50.3819 -727.116 49.4977 -726.896 48.6602L-595.825 -449.496C-595.504 -450.716 -594.147 -451.338 -593.013 -450.785L1701.02 669.147C1702.88 670.054 1702.31 672.838 1700.25 672.942Z" fill="url(#paint0_linear_70_93)" fill-opacity="0.08"/>
</g>
<g filter="url(#filter1_f_70_93)">
<path d="M3009.47 1144.2L2330.3 481.267C2329.74 480.72 2328.91 480.55 2328.18 480.832L200.75 1302.39C199.846 1302.74 199.323 1303.69 199.507 1304.64L327.206 1961.76C327.432 1962.93 328.617 1963.64 329.752 1963.3L3008.66 1147.55C3010.11 1147.1 3010.56 1145.26 3009.47 1144.2Z" fill="url(#paint1_linear_70_93)" fill-opacity="0.08"/>
</g>
<g filter="url(#filter2_f_70_93)">
<path d="M-319 0L2885.5 14.0044" stroke="#151515" stroke-width="115"/>
</g>
<g filter="url(#filter3_f_70_93)">
<path d="M-625 1094L2579.5 1080" stroke="#151515" stroke-width="115"/>
</g>
<defs>
<filter id="filter0_f_70_93" x="-791.762" y="-515.788" width="2558.71" height="1321.53" filterUnits="userSpaceOnUse" color-interpolation-filters="sRGB">
<feFlood flood-opacity="0" result="BackgroundImageFix"/>
<feBlend mode="normal" in="SourceGraphic" in2="BackgroundImageFix" result="shape"/>
<feGaussianBlur stdDeviation="32.4" result="effect1_foregroundBlur_70_93"/>
</filter>
<filter id="filter1_f_70_93" x="134.67" y="415.898" width="2940.21" height="1612.29" filterUnits="userSpaceOnUse" color-interpolation-filters="sRGB">
<feFlood flood-opacity="0" result="BackgroundImageFix"/>
<feBlend mode="normal" in="SourceGraphic" in2="BackgroundImageFix" result="shape"/>
<feGaussianBlur stdDeviation="32.4" result="effect1_foregroundBlur_70_93"/>
</filter>
<filter id="filter2_f_70_93" x="-389.251" y="-127.5" width="3345" height="269.003" filterUnits="userSpaceOnUse" color-interpolation-filters="sRGB">
<feFlood flood-opacity="0" result="BackgroundImageFix"/>
<feBlend mode="normal" in="SourceGraphic" in2="BackgroundImageFix" result="shape"/>
<feGaussianBlur stdDeviation="35" result="effect1_foregroundBlur_70_93"/>
</filter>
<filter id="filter3_f_70_93" x="-695.251" y="952.5" width="3345" height="269.003" filterUnits="userSpaceOnUse" color-interpolation-filters="sRGB">
<feFlood flood-opacity="0" result="BackgroundImageFix"/>
<feBlend mode="normal" in="SourceGraphic" in2="BackgroundImageFix" result="shape"/>
<feGaussianBlur stdDeviation="35" result="effect1_foregroundBlur_70_93"/>
</filter>
<linearGradient id="paint0_linear_70_93" x1="374.336" y1="873.502" x2="225.964" y2="-538.163" gradientUnits="userSpaceOnUse">
<stop stop-color="#526EEB"/>
<stop offset="1" stop-color="#52EBA1"/>
</linearGradient>
<linearGradient id="paint1_linear_70_93" x1="1766.36" y1="373.951" x2="1426.57" y2="2171.66" gradientUnits="userSpaceOnUse">
<stop stop-color="#52EBA1"/>
<stop offset="1" stop-color="#526EEB"/>
</linearGradient>
</defs>
</svg>
